<?xml version="1.0" encoding="UTF-8" standalone="no"?>
<svg
   xmlns:dc="http://purl.org/dc/elements/1.1/"
   xmlns:cc="http://creativecommons.org/ns#"
   xmlns:rdf="http://www.w3.org/1999/02/22-rdf-syntax-ns#"
   xmlns:svg="http://www.w3.org/2000/svg"
   xmlns="http://www.w3.org/2000/svg"
   xmlns:sodipodi="http://sodipodi.sourceforge.net/DTD/sodipodi-0.dtd"
   xmlns:inkscape="http://www.inkscape.org/namespaces/inkscape"
   width="1200"
   height="500"
   version="1.1"
   style="height:500px;width:1200px;perspective-origin:600px 250px;transform-origin:600px 250px;"
   id="svg2"
   inkscape:version="0.91 r13725"
   sodipodi:docname="access.per.day.svg">
  <metadata
     id="metadata82">
    <rdf:RDF>
      <cc:Work
         rdf:about="">
        <dc:format>image/svg+xml</dc:format>
        <dc:type
           rdf:resource="http://purl.org/dc/dcmitype/StillImage" />
      </cc:Work>
    </rdf:RDF>
  </metadata>
  <defs
     id="defs80" />
  <sodipodi:namedview
     pagecolor="#ffffff"
     bordercolor="#666666"
     borderopacity="1"
     objecttolerance="10"
     gridtolerance="10"
     guidetolerance="10"
     inkscape:pageopacity="0"
     inkscape:pageshadow="2"
     inkscape:window-width="1918"
     inkscape:window-height="1141"
     id="namedview78"
     showgrid="false"
     inkscape:zoom="1.0633333"
     inkscape:cx="581.16708"
     inkscape:cy="124.48305"
     inkscape:window-x="0"
     inkscape:window-y="0"
     inkscape:window-maximized="0"
     inkscape:current-layer="svg2" />
  <path
     inkscape:connector-curvature="0"
     id="path6"
     style="fill:none;stroke:#000000;stroke-width:2px"
     d="m 70,458.22034 2.095986,1.18644 2.095986,-9.9661 2.095986,-9.37288 2.095986,17.44067 2.095985,-9.01694 2.095986,10.91525 2.095986,-2.72881 2.095986,-8.89831 2.095986,-0.59322 2.095986,-1.0678 2.095986,13.40678 2.095986,-0.47457 2.095986,0.47457 2.095986,0 2.095987,-34.88135 2.09598,34.88135 2.09599,-0.11864 2.09599,-0.59322 2.09598,-4.38983 2.09599,5.10169 2.09598,-11.50847 2.09599,11.50847 2.09599,-11.27118 2.09598,11.27118 2.09599,-0.71186 2.09598,-41.52542 2.09599,26.57627 2.09598,-73.79661 2.09599,86.61017 2.09599,-39.62712 2.09598,38.20339 2.09599,0.47457 2.18332,-30.84745 2.09598,-7.83051 2.09599,-40.57627 2.09598,79.01695 2.09599,-27.52543 2.09599,29.42373 2.09598,-0.71186 2.09599,-76.64407 2.09598,6.28813 2.09599,54.22034 2.09599,3.32204 2.09598,0.35593 2.09599,-0.35593 2.09598,1.42373 2.09599,-25.98306 2.09599,-14.8305 2.09598,-51.1356 2.09599,88.15255 2.09598,1.66101 2.09599,-1.06779 2.09599,-17.79661 2.09598,-4.50848 2.09599,2.13559 2.09598,6.52543 2.09599,14.94915 2.09598,-23.25424 2.09599,24.79661 2.09599,-0.11864 2.09598,-0.94915 2.09599,-0.11865 2.09598,-8.66101 2.09599,8.54237 2.09599,0.83051 2.09598,-0.94916 2.09599,0.59322 2.09598,2.1356 2.09599,-13.76271 2.09599,-1.54238 2.09598,12.93221 2.09599,-10.67797 2.09598,10.91525 2.09599,-0.94915 2.09599,-0.47457 2.09598,-10.08475 2.09599,11.50847 2.09598,1.0678 2.09599,-8.18644 2.09598,-18.50847 2.09599,26.33898 2.09599,-53.50848 2.09598,53.98306 2.09599,-24.32204 2.09598,25.62712 2.09599,-0.47458 2.09599,-2.61017 2.09598,2.96611 2.09599,-1.54238 2.09598,-33.81356 2.09599,34.1695 2.09599,0.35593 2.09598,-1.30509 2.09599,-3.79661 2.09598,-7 2.09599,12.45763 2.09598,-16.37288 2.09599,15.18644 2.09599,-2.9661 2.09598,-12.81356 2.09599,15.54237 2.09598,-0.23729 2.09599,-35.59322 2.09599,20.64407 2.09598,-16.25424 2.09599,14.83051 2.09598,-0.47457 2.09599,17.79661 2.09599,0 2.09598,-30.01695 2.09599,27.88135 2.09598,-38.32203 2.09599,10.91525 2.09599,22.89831 2.09598,5.9322 2.09599,-1.8983 2.09598,-16.25424 2.09599,18.0339 2.09598,-0.83051 2.09599,-1.42373 2.09599,-11.15254 2.09598,9.9661 2.09599,-3.32203 2.09598,3.20339 2.09599,3.44067 2.09599,-5.33898 2.09598,-22.77966 2.09599,23.84746 2.09598,-7.71187 2.09599,10.44068 2.09599,-0.83051 2.09598,-57.42373 2.09599,26.33899 2.09598,-6.1695 2.09599,23.96611 2.09598,13.64406 2.09599,-9.84745 2.09599,-11.15255 2.09598,-1.06779 2.09599,-24.08475 2.09598,35.59322 2.09599,10.55932 2.09599,0.59322 2.09598,-15.30508 2.09599,9.25424 2.09598,-19.93221 2.09599,-13.40678 2.09599,24.20339 2.09598,-38.44067 2.09599,49.35593 2.09598,4.27118 2.09599,-70.11864 2.09599,9.37288 2.09598,-14.47457 2.09599,69.88135 2.09598,-4.27119 2.09599,8.18645 2.09598,-32.50848 2.09599,-5.22034 2.09599,-2.9661 2.09598,-13.88136 2.09599,0.23729 2.09598,-14 2.09599,68.1017 2.09599,-10.55932 2.09598,-31.08475 2.09599,38.55932 2.09598,-37.9661 2.09599,-9.72881 2.09599,35.35593 2.09598,10.55932 2.09599,-7.47458 2.09598,-77 2.09599,39.86441 2.09598,29.89831 2.09599,-5.69492 2.09599,-6.40678 2.09598,29.0678 2.09599,0.94915 2.09598,-32.86441 2.09599,-29.30508 2.09599,50.77966 2.09598,-19.69492 2.09599,-13.76271 2.09598,46.98305 2.09599,-2.37288 2.00865,-25.0339 2.09599,10.44068 2.09598,-30.72881 2.09599,6.40678 2.09599,9.84746 2.09598,26.45762 2.09599,-9.61017 2.09598,-8.18644 2.09599,-28.59322 2.09599,11.50848 2.09598,-21 2.09599,12.57627 2.09598,34.05085 2.09599,0.11864 2.09599,-17.44068 2.09598,-30.9661 2.09599,27.05085 2.09598,-4.15255 2.09599,-53.62711 2.09599,74.15254 2.09598,-27.88136 2.09599,-60.0339 2.09598,1.77967 2.09599,-11.74577 2.09598,47.57627 2.09599,5.45763 2.09599,44.61017 2.09598,-30.49152 2.09599,-23.25424 2.09598,-11.62712 2.09599,-65.13559 2.09599,104.05084 2.09598,16.61017 2.09599,8.42373 2.09598,-0.35593 2.09599,-28.47458 2.09599,-23.13559 2.09598,49.71186 2.09599,-78.30508 2.09598,72.84746 2.09599,19.10169 2.09598,-9.37288 2.09599,-12.10169 2.09599,4.8644 2.09598,-44.37288 2.09599,-16.84746 2.09598,51.37289 2.09599,4.38983 2.09599,-35.94916 2.09598,-5.57627 2.09599,18.27119 2.09598,12.57627 2.09599,8.77966 2.09599,-4.38983 2.09598,19.22034 2.09599,0.11864 2.09598,0.83051 2.09599,-38.67796 2.09599,-70 2.09598,79.13559 2.09599,-27.64407 2.09598,17.44068 2.09599,35.94915 2.09598,-75.22034 2.09599,58.1356 2.09599,2.37288 2.09598,-5.69492 2.09599,5.45763 2.09598,12.57627 2.09599,1.89831 2.09599,-35.23729 2.09598,26.57627 2.09599,-41.76271 2.09598,48.88135 2.09599,-4.74576 2.09599,7 2.09598,0.47458 2.09599,-37.01695 2.09598,32.50847 2.09599,2.37288 2.09598,1.42373 2.09599,-3.91525 2.09599,3.55932 2.09598,1.54237 2.09599,-1.06779 2.09598,-61.33899 2.09599,-2.37288 2.09599,-35.23729 2.09598,38.55932 2.09599,36.42373 2.09598,11.98305 2.09599,11.38984 2.09599,-23.1356 2.09598,-7.35593 2.09599,-64.0678 2.09598,40.81356 2.09599,33.81356 2.09599,10.79661 2.09598,-45.32203 2.09599,-6.52543 2.09598,-38.44067 2.09599,63.35593 2.09598,-0.71187 2.09599,28.71187 2.09599,-55.76271 2.09598,2.72881 2.09599,34.76271 2.09598,-9.72881 2.09599,-11.15254 2.09599,2.72881 2.09598,32.50847 2.09599,-8.8983 2.09598,-2.72881 2.09599,-29.89831 2.09599,25.15254 2.09598,18.74577 2.09599,-40.57628 2.09598,42.23729 2.09599,1.77966 2.09598,-53.03389 2.09599,39.98305 2.09599,-28.94916 2.09598,-26.81356 2.09599,43.89831 2.09598,28.47458 2.09599,-4.62712 2.09599,-42 2.09598,-15.66102 2.09599,53.27119 2.09598,-2.49153 2.09599,-25.98305 2.09599,0.71186 2.09598,14.23729 2.09599,-36.06779 2.09598,38.44067 2.09599,9.49153 2.09599,-52.20339 2.09598,-10.79661 2.09599,46.86441 2.09598,16.72881 2.09599,-41.16949 2.09598,-22.30509 2.09599,51.84746 2.09599,-24.55932 2.09598,38.20339 2.09599,0.83051 2.09598,1.06779 2.09599,-75.45762 2.09599,27.40678 2.09598,3.91525 2.09599,34.16949 2.09598,-37.72881 2.09599,30.25424 2.09599,3.08474 2.09598,-31.55932 2.09599,-5.9322 2.09598,7.94915 2.09599,-46.86441 2.09599,-154.94915 2.09598,137.0339 2.09599,56.47457 2.09598,-17.20339 2.09599,-55.76271 2.09598,14.47458 2.09599,10.67796 2.09599,-49.11864 2.09598,62.05085 2.09599,18.50847 2.09598,-31.20339 2.09599,-32.74576 2.09599,-53.38983 2.09598,95.62712 2.09599,15.77966 2.09598,-51.49153 2.09599,23.72882 2.09599,-29.77966 2.09598,33.69491 2.09599,-61.81356 2.09598,18.62712 2.09599,40.1017 2.09598,34.52542 2.09599,-6.76271 2.09599,-29.30509 2.09598,1.30509 2.09599,-175.71187 2.09598,120.30509 2.09599,67.98305 2.09599,-42 2.09598,37.49152 2.09599,-34.76271 2.09598,7.35593 2.09599,-33.45762 2.09599,-76.64407 2.09598,135.61017 2.09599,17.55932 2.09598,0.47458 2.09599,-2.01695 2.09599,-73.08475 2.09598,45.08475 2.09599,15.0678 2.09598,-30.96611 2.09599,42.47458 2.09598,1.0678 2.09599,5.81356 2.09599,-106.77967 2.09598,80.55933 2.09599,9.37288 2.09598,12.10169 2.09599,-1.42373 2.09599,-26.22033 2.18331,39.8644 2.09599,-31.67796 2.09599,-13.40678 2.09598,-5.33899 2.09599,-2.72881 2.09598,39.50847 2.09599,-69.28813 2.09599,24.55932 2.09598,42.71187 2.09599,-29.66102 2.09598,32.50847 2.09599,-4.38983 2.09599,4.27119 2.09598,-5.81356 2.09599,-46.62712 2.09598,28.11864 2.09599,-164.32203 2.09598,160.52542 2.09599,-23.01694 2.09599,19.10169 2.09598,9.13559 2.09599,-49.11864 2.09598,-55.76271 2.09599,72.84746 2.09599,7.47457 2.09598,-23.61017 2.09599,10.20339 2.09598,10.79661 2.09599,-84.23729 2.09599,114.1356 2.09598,-48.05085 2.09599,55.16949 2.09598,-49 2.09599,46.98305 2.09599,-18.74576 2.09598,-38.44068 2.09599,55.76271 2.09598,-27.05084 2.09599,4.38983 2.09598,4.15254 2.09599,21.11864 2.09599,-17.79661 2.09598,-4.27118 2.09599,-37.1356 2.09598,18.38983 2.09599,-66.32203 2.09599,31.44068 2.09601,53.0339 2.096,-0.35594 2.0959,-150.55932 2.096,142.49153 2.096,-11.27119 2.096,-74.74576 2.096,62.64407 2.096,17.44067 2.096,2.1356 2.0959,-64.42373 2.096,4.27118 2.096,42 2.096,10.44068 2.096,1.18644 2.096,-16.61017 2.096,16.72882 2.096,-5.81356 2.0959,-49.71187 2.096,49.94916 2.096,3.79661 2.096,-1.42373 2.096,1.66101 2.096,-0.71186 2.096,-24.20339 2.0959,8.54237 2.096,-58.01695 2.096,-19.45762 2.096,67.8644 2.096,17.91526 2.096,3.08474 2.096,-32.38983 2.0959,3.67797 2.096,-23.25424 2.096,-23.9661 2.096,-67.86441 2.096,137.50848 2.096,1.06779 2.0959,-26.9322 2.096,15.77966 2.096,-37.25424 2.096,-176.30508 2.096,94.44068 2.096,92.66101 2.096,2.1356 2.096,-40.69492 2.0959,-54.22034 2.096,82.33899 2.096,19.81356 2.096,-12.22034 2.096,16.01695 2.096,3.91525 2.096,-104.28813 2.0959,92.06779 2.096,-26.9322 2.096,-11.50848 2.096,-10.67796 2.096,21.94915 2.096,-0.11864 2.096,-15.18644 2.0959,-87.44068 2.096,22.06779 2.096,-19.33898 2.096,-28.593219 2.096,103.576269 2.096,0.59322 2.096,-88.745761 2.0959,21.355931 2.096,15.42373 2.096,-2.9661 2.096,7.83051 2.096,28 2.096,-61.694918 2.096,23.372878 2.0959,36.77966 2.096,-59.55932 2.096,12.1017 2.096,62.76271"
     class="line" />
  <g
     id="g8"
     transform="translate(70,460)"
     class="x axis">
    <g
       id="g10"
       transform="translate(14.671901,0)"
       class="tick">
      <line
         y1="0"
         x1="0"
         id="line12"
         style="fill:none;stroke:#808080;shape-rendering:crispEdges"
         x2="0"
         y2="6" />
      <text
         id="text14"
         style="text-anchor:middle;white-space:nowrap;display:block"
         x="0"
         y="17"
         dy="3.0928058e-41">October</text>
    </g>
    <line
       y2="6"
       x2="207.58994"
       style="fill:none;stroke:#808080;shape-rendering:crispEdges"
       id="line18"
       x1="207.58994"
       y1="0" />
    <text
       dy="3.0928058e-41"
       y="17"
       x="207.58994"
       style="text-anchor:middle;white-space:nowrap;display:block"
       id="text20">2015</text>
    <line
       y2="6"
       x2="396.14133"
       style="fill:none;stroke:#808080;shape-rendering:crispEdges"
       id="line24"
       x1="396.14133"
       y1="0" />
    <text
       dy="3.0928058e-41"
       y="17"
       x="396.14133"
       style="text-anchor:middle;white-space:nowrap;display:block"
       id="text26">April</text>
    <line
       y2="6"
       x2="586.87604"
       style="fill:none;stroke:#808080;shape-rendering:crispEdges"
       id="line30"
       x1="586.87604"
       y1="0" />
    <text
       dy="3.0928058e-41"
       y="17"
       x="586.87604"
       style="text-anchor:middle;white-space:nowrap;display:block"
       id="text32">July</text>
    <line
       y2="6"
       x2="779.70673"
       style="fill:none;stroke:#808080;shape-rendering:crispEdges"
       id="line36"
       x1="779.70673"
       y1="0" />
    <text
       dy="3.0928058e-41"
       y="17"
       x="779.70673"
       style="text-anchor:middle;white-space:nowrap;display:block"
       id="text38">October</text>
    <line
       y2="6"
       x2="972.62482"
       style="fill:none;stroke:#808080;shape-rendering:crispEdges"
       id="line42"
       x1="972.62482"
       y1="0" />
    <text
       dy="3.0928058e-41"
       y="17"
       x="972.62482"
       style="text-anchor:middle;white-space:nowrap;display:block"
       id="text44">2016</text>
    <path
       inkscape:connector-curvature="0"
       id="path46"
       style="fill:none;stroke:#808080;shape-rendering:crispEdges"
       d="m 0,6 0,-6 1090,0 0,6"
       class="domain" />
  </g>
  <g
     class="tick"
     transform="translate(70,460)"
     id="g50">
    <line
       x2="-6"
       y2="0"
       style="fill:none;stroke:#808080;shape-rendering:crispEdges"
       id="line52"
       x1="0"
       y1="0" />
    <text
       dy="3.0928058e-41"
       x="-9"
       y="0"
       style="text-anchor:end;white-space:nowrap;display:block"
       id="text54">0</text>
  </g>
  <g
     class="tick"
     transform="translate(70,341.35593)"
     id="g56">
    <line
       x2="-6"
       y2="0"
       style="fill:none;stroke:#808080;shape-rendering:crispEdges"
       id="line58"
       x1="0"
       y1="0" />
    <text
       dy="3.0928058e-41"
       x="-9"
       y="0"
       style="text-anchor:end;white-space:nowrap;display:block"
       id="text60">1,000</text>
  </g>
  <g
     class="tick"
     transform="translate(70,222.71186)"
     id="g62">
    <line
       x2="-6"
       y2="0"
       style="fill:none;stroke:#808080;shape-rendering:crispEdges"
       id="line64"
       x1="0"
       y1="0" />
    <text
       dy="3.0928058e-41"
       x="-9"
       y="0"
       style="text-anchor:end;white-space:nowrap;display:block"
       id="text66">2,000</text>
  </g>
  <g
     class="tick"
     transform="translate(70,104.0678)"
     id="g68">
    <line
       x2="-6"
       y2="0"
       style="fill:none;stroke:#808080;shape-rendering:crispEdges"
       id="line70"
       x1="0"
       y1="0" />
    <text
       dy="3.0928058e-41"
       x="-9"
       y="0"
       style="text-anchor:end;white-space:nowrap;display:block"
       id="text72">3,000</text>
  </g>
  <path
     class="domain"
     d="m 64,40 6,0 0,420 -6,0"
     style="fill:none;stroke:#808080;shape-rendering:crispEdges"
     id="path74"
     inkscape:connector-curvature="0" />
  <path
     inkscape:connector-curvature="0"
     id="path76"
     style="stroke:#000000;stroke-width:0px"
     d="m 70,458.22034 2.095986,1.18644 2.095986,-9.9661 2.095986,-9.37288 2.095986,17.44067 2.095985,-9.01694 2.095986,10.91525 2.095986,-2.72881 2.095986,-8.89831 2.095986,-0.59322 2.095986,-1.0678 2.095986,13.40678 2.095986,-0.47457 2.095986,0.47457 2.095986,0 2.095987,-34.88135 2.09598,34.88135 2.09599,-0.11864 2.09599,-0.59322 2.09598,-4.38983 2.09599,5.10169 2.09598,-11.50847 2.09599,11.50847 2.09599,-11.27118 2.09598,11.27118 2.09599,-0.71186 2.09598,-41.52542 2.09599,26.57627 2.09598,-73.79661 2.09599,86.61017 2.09599,-39.62712 2.09598,38.20339 2.09599,0.47457 2.18332,-30.84745 2.09598,-7.83051 2.09599,-40.57627 2.09598,79.01695 2.09599,-27.52543 2.09599,29.42373 2.09598,-0.71186 2.09599,-76.64407 2.09598,6.28813 2.09599,54.22034 2.09599,3.32204 2.09598,0.35593 2.09599,-0.35593 2.09598,1.42373 2.09599,-25.98306 2.09599,-14.8305 2.09598,-51.1356 2.09599,88.15255 2.09598,1.66101 2.09599,-1.06779 2.09599,-17.79661 2.09598,-4.50848 2.09599,2.13559 2.09598,6.52543 2.09599,14.94915 2.09598,-23.25424 2.09599,24.79661 2.09599,-0.11864 2.09598,-0.94915 2.09599,-0.11865 2.09598,-8.66101 2.09599,8.54237 2.09599,0.83051 2.09598,-0.94916 2.09599,0.59322 2.09598,2.1356 2.09599,-13.76271 2.09599,-1.54238 2.09598,12.93221 2.09599,-10.67797 2.09598,10.91525 2.09599,-0.94915 2.09599,-0.47457 2.09598,-10.08475 2.09599,11.50847 2.09598,1.0678 2.09599,-8.18644 2.09598,-18.50847 2.09599,26.33898 2.09599,-53.50848 2.09598,53.98306 2.09599,-24.32204 2.09598,25.62712 2.09599,-0.47458 2.09599,-2.61017 2.09598,2.96611 2.09599,-1.54238 2.09598,-33.81356 2.09599,34.1695 2.09599,0.35593 2.09598,-1.30509 2.09599,-3.79661 2.09598,-7 2.09599,12.45763 2.09598,-16.37288 2.09599,15.18644 2.09599,-2.9661 2.09598,-12.81356 2.09599,15.54237 2.09598,-0.23729 2.09599,-35.59322 2.09599,20.64407 2.09598,-16.25424 2.09599,14.83051 2.09598,-0.47457 2.09599,17.79661 2.09599,0 2.09598,-30.01695 2.09599,27.88135 2.09598,-38.32203 2.09599,10.91525 2.09599,22.89831 2.09598,5.9322 2.09599,-1.8983 2.09598,-16.25424 2.09599,18.0339 2.09598,-0.83051 2.09599,-1.42373 2.09599,-11.15254 2.09598,9.9661 2.09599,-3.32203 2.09598,3.20339 2.09599,3.44067 2.09599,-5.33898 2.09598,-22.77966 2.09599,23.84746 2.09598,-7.71187 2.09599,10.44068 2.09599,-0.83051 2.09598,-57.42373 2.09599,26.33899 2.09598,-6.1695 2.09599,23.96611 2.09598,13.64406 2.09599,-9.84745 2.09599,-11.15255 2.09598,-1.06779 2.09599,-24.08475 2.09598,35.59322 2.09599,10.55932 2.09599,0.59322 2.09598,-15.30508 2.09599,9.25424 2.09598,-19.93221 2.09599,-13.40678 2.09599,24.20339 2.09598,-38.44067 2.09599,49.35593 2.09598,4.27118 2.09599,-70.11864 2.09599,9.37288 2.09598,-14.47457 2.09599,69.88135 2.09598,-4.27119 2.09599,8.18645 2.09598,-32.50848 2.09599,-5.22034 2.09599,-2.9661 2.09598,-13.88136 2.09599,0.23729 2.09598,-14 2.09599,68.1017 2.09599,-10.55932 2.09598,-31.08475 2.09599,38.55932 2.09598,-37.9661 2.09599,-9.72881 2.09599,35.35593 2.09598,10.55932 2.09599,-7.47458 2.09598,-77 2.09599,39.86441 2.09598,29.89831 2.09599,-5.69492 2.09599,-6.40678 2.09598,29.0678 2.09599,0.94915 2.09598,-32.86441 2.09599,-29.30508 2.09599,50.77966 2.09598,-19.69492 2.09599,-13.76271 2.09598,46.98305 2.09599,-2.37288 2.00865,-25.0339 2.09599,10.44068 2.09598,-30.72881 2.09599,6.40678 2.09599,9.84746 2.09598,26.45762 2.09599,-9.61017 2.09598,-8.18644 2.09599,-28.59322 2.09599,11.50848 2.09598,-21 2.09599,12.57627 2.09598,34.05085 2.09599,0.11864 2.09599,-17.44068 2.09598,-30.9661 2.09599,27.05085 2.09598,-4.15255 2.09599,-53.62711 2.09599,74.15254 2.09598,-27.88136 2.09599,-60.0339 2.09598,1.77967 2.09599,-11.74577 2.09598,47.57627 2.09599,5.45763 2.09599,44.61017 2.09598,-30.49152 2.09599,-23.25424 2.09598,-11.62712 2.09599,-65.13559 2.09599,104.05084 2.09598,16.61017 2.09599,8.42373 2.09598,-0.35593 2.09599,-28.47458 2.09599,-23.13559 2.09598,49.71186 2.09599,-78.30508 2.09598,72.84746 2.09599,19.10169 2.09598,-9.37288 2.09599,-12.10169 2.09599,4.8644 2.09598,-44.37288 2.09599,-16.84746 2.09598,51.37289 2.09599,4.38983 2.09599,-35.94916 2.09598,-5.57627 2.09599,18.27119 2.09598,12.57627 2.09599,8.77966 2.09599,-4.38983 2.09598,19.22034 2.09599,0.11864 2.09598,0.83051 2.09599,-38.67796 2.09599,-70 2.09598,79.13559 2.09599,-27.64407 2.09598,17.44068 2.09599,35.94915 2.09598,-75.22034 2.09599,58.1356 2.09599,2.37288 2.09598,-5.69492 2.09599,5.45763 2.09598,12.57627 2.09599,1.89831 2.09599,-35.23729 2.09598,26.57627 2.09599,-41.76271 2.09598,48.88135 2.09599,-4.74576 2.09599,7 2.09598,0.47458 2.09599,-37.01695 2.09598,32.50847 2.09599,2.37288 2.09598,1.42373 2.09599,-3.91525 2.09599,3.55932 2.09598,1.54237 2.09599,-1.06779 2.09598,-61.33899 2.09599,-2.37288 2.09599,-35.23729 2.09598,38.55932 2.09599,36.42373 2.09598,11.98305 2.09599,11.38984 2.09599,-23.1356 2.09598,-7.35593 2.09599,-64.0678 2.09598,40.81356 2.09599,33.81356 2.09599,10.79661 2.09598,-45.32203 2.09599,-6.52543 2.09598,-38.44067 2.09599,63.35593 2.09598,-0.71187 2.09599,28.71187 2.09599,-55.76271 2.09598,2.72881 2.09599,34.76271 2.09598,-9.72881 2.09599,-11.15254 2.09599,2.72881 2.09598,32.50847 2.09599,-8.8983 2.09598,-2.72881 2.09599,-29.89831 2.09599,25.15254 2.09598,18.74577 2.09599,-40.57628 2.09598,42.23729 2.09599,1.77966 2.09598,-53.03389 2.09599,39.98305 2.09599,-28.94916 2.09598,-26.81356 2.09599,43.89831 2.09598,28.47458 2.09599,-4.62712 2.09599,-42 2.09598,-15.66102 2.09599,53.27119 2.09598,-2.49153 2.09599,-25.98305 2.09599,0.71186 2.09598,14.23729 2.09599,-36.06779 2.09598,38.44067 2.09599,9.49153 2.09599,-52.20339 2.09598,-10.79661 2.09599,46.86441 2.09598,16.72881 2.09599,-41.16949 2.09598,-22.30509 2.09599,51.84746 2.09599,-24.55932 2.09598,38.20339 2.09599,0.83051 2.09598,1.06779 2.09599,-75.45762 2.09599,27.40678 2.09598,3.91525 2.09599,34.16949 2.09598,-37.72881 2.09599,30.25424 2.09599,3.08474 2.09598,-31.55932 2.09599,-5.9322 2.09598,7.94915 2.09599,-46.86441 2.09599,-154.94915 2.09598,137.0339 2.09599,56.47457 2.09598,-17.20339 2.09599,-55.76271 2.09598,14.47458 2.09599,10.67796 2.09599,-49.11864 2.09598,62.05085 2.09599,18.50847 2.09598,-31.20339 2.09599,-32.74576 2.09599,-53.38983 2.09598,95.62712 2.09599,15.77966 2.09598,-51.49153 2.09599,23.72882 2.09599,-29.77966 2.09598,33.69491 2.09599,-61.81356 2.09598,18.62712 2.09599,40.1017 2.09598,34.52542 2.09599,-6.76271 2.09599,-29.30509 2.09598,1.30509 2.09599,-175.71187 2.09598,120.30509 2.09599,67.98305 2.09599,-42 2.09598,37.49152 2.09599,-34.76271 2.09598,7.35593 2.09599,-33.45762 2.09599,-76.64407 2.09598,135.61017 2.09599,17.55932 2.09598,0.47458 2.09599,-2.01695 2.09599,-73.08475 2.09598,45.08475 2.09599,15.0678 2.09598,-30.96611 2.09599,42.47458 2.09598,1.0678 2.09599,5.81356 2.09599,-106.77967 2.09598,80.55933 2.09599,9.37288 2.09598,12.10169 2.09599,-1.42373 2.09599,-26.22033 2.18331,39.8644 2.09599,-31.67796 2.09599,-13.40678 2.09598,-5.33899 2.09599,-2.72881 2.09598,39.50847 2.09599,-69.28813 2.09599,24.55932 2.09598,42.71187 2.09599,-29.66102 2.09598,32.50847 2.09599,-4.38983 2.09599,4.27119 2.09598,-5.81356 2.09599,-46.62712 2.09598,28.11864 2.09599,-164.32203 2.09598,160.52542 2.09599,-23.01694 2.09599,19.10169 2.09598,9.13559 2.09599,-49.11864 2.09598,-55.76271 2.09599,72.84746 2.09599,7.47457 2.09598,-23.61017 2.09599,10.20339 2.09598,10.79661 2.09599,-84.23729 2.09599,114.1356 2.09598,-48.05085 2.09599,55.16949 2.09598,-49 2.09599,46.98305 2.09599,-18.74576 2.09598,-38.44068 2.09599,55.76271 2.09598,-27.05084 2.09599,4.38983 2.09598,4.15254 2.09599,21.11864 2.09599,-17.79661 2.09598,-4.27118 2.09599,-37.1356 2.09598,18.38983 2.09599,-66.32203 2.09599,31.44068 2.09601,53.0339 2.096,-0.35594 2.0959,-150.55932 2.096,142.49153 2.096,-11.27119 2.096,-74.74576 2.096,62.64407 2.096,17.44067 2.096,2.1356 2.0959,-64.42373 2.096,4.27118 2.096,42 2.096,10.44068 2.096,1.18644 2.096,-16.61017 2.096,16.72882 2.096,-5.81356 2.0959,-49.71187 2.096,49.94916 2.096,3.79661 2.096,-1.42373 2.096,1.66101 2.096,-0.71186 2.096,-24.20339 2.0959,8.54237 2.096,-58.01695 2.096,-19.45762 2.096,67.8644 2.096,17.91526 2.096,3.08474 2.096,-32.38983 2.0959,3.67797 2.096,-23.25424 2.096,-23.9661 2.096,-67.86441 2.096,137.50848 2.096,1.06779 2.0959,-26.9322 2.096,15.77966 2.096,-37.25424 2.096,-176.30508 2.096,94.44068 2.096,92.66101 2.096,2.1356 2.096,-40.69492 2.0959,-54.22034 2.096,82.33899 2.096,19.81356 2.096,-12.22034 2.096,16.01695 2.096,3.91525 2.096,-104.28813 2.0959,92.06779 2.096,-26.9322 2.096,-11.50848 2.096,-10.67796 2.096,21.94915 2.096,-0.11864 2.096,-15.18644 2.0959,-87.44068 2.096,22.06779 2.096,-19.33898 2.096,-28.593219 2.096,103.576269 2.096,0.59322 2.096,-88.74576 2.0959,21.35593 2.096,15.42373 2.096,-2.9661 2.096,7.83051 2.096,28 2.096,-61.69492 2.096,23.37288 2.0959,36.77966 2.096,-59.55932 2.096,12.1017 2.096,62.76271 0,284.98305 -2.096,0 -2.096,0 -2.096,0 -2.0959,0 -2.096,0 -2.096,0 -2.096,0 -2.096,0 -2.096,0 -2.096,0 -2.0959,0 -2.096,0 -2.096,0 -2.096,0 -2.096,0 -2.096,0 -2.096,0 -2.0959,0 -2.096,0 -2.096,0 -2.096,0 -2.096,0 -2.096,0 -2.096,0 -2.0959,0 -2.096,0 -2.096,0 -2.096,0 -2.096,0 -2.096,0 -2.096,0 -2.0959,0 -2.096,0 -2.096,0 -2.096,0 -2.096,0 -2.096,0 -2.096,0 -2.096,0 -2.0959,0 -2.096,0 -2.096,0 -2.096,0 -2.096,0 -2.096,0 -2.096,0 -2.0959,0 -2.096,0 -2.096,0 -2.096,0 -2.096,0 -2.096,0 -2.096,0 -2.0959,0 -2.096,0 -2.096,0 -2.096,0 -2.096,0 -2.096,0 -2.096,0 -2.0959,0 -2.096,0 -2.096,0 -2.096,0 -2.096,0 -2.096,0 -2.096,0 -2.0959,0 -2.096,0 -2.096,0 -2.096,0 -2.096,0 -2.096,0 -2.096,0 -2.0959,0 -2.096,0 -2.09601,0 -2.09599,0 -2.09599,0 -2.09598,0 -2.09599,0 -2.09598,0 -2.09599,0 -2.09599,0 -2.09598,0 -2.09599,0 -2.09598,0 -2.09599,0 -2.09598,0 -2.09599,0 -2.09599,0 -2.09598,0 -2.09599,0 -2.09598,0 -2.09599,0 -2.09599,0 -2.09598,0 -2.09599,0 -2.09598,0 -2.09599,0 -2.09599,0 -2.09598,0 -2.09599,0 -2.09598,0 -2.09599,0 -2.09599,0 -2.09598,0 -2.09599,0 -2.09598,0 -2.09599,0 -2.09598,0 -2.09599,0 -2.09599,0 -2.09598,0 -2.09599,0 -2.09598,0 -2.09599,0 -2.09599,0 -2.09598,0 -2.09599,0 -2.09598,0 -2.09599,0 -2.09599,0 -2.18331,0 -2.09599,0 -2.09599,0 -2.09598,0 -2.09599,0 -2.09598,0 -2.09599,0 -2.09599,0 -2.09598,0 -2.09599,0 -2.09598,0 -2.09599,0 -2.09598,0 -2.09599,0 -2.09599,0 -2.09598,0 -2.09599,0 -2.09598,0 -2.09599,0 -2.09599,0 -2.09598,0 -2.09599,0 -2.09598,0 -2.09599,0 -2.09599,0 -2.09598,0 -2.09599,0 -2.09598,0 -2.09599,0 -2.09599,0 -2.09598,0 -2.09599,0 -2.09598,0 -2.09599,0 -2.09598,0 -2.09599,0 -2.09599,0 -2.09598,0 -2.09599,0 -2.09598,0 -2.09599,0 -2.09599,0 -2.09598,0 -2.09599,0 -2.09598,0 -2.09599,0 -2.09599,0 -2.09598,0 -2.09599,0 -2.09598,0 -2.09599,0 -2.09598,0 -2.09599,0 -2.09599,0 -2.09598,0 -2.09599,0 -2.09598,0 -2.09599,0 -2.09599,0 -2.09598,0 -2.09599,0 -2.09598,0 -2.09599,0 -2.09599,0 -2.09598,0 -2.09599,0 -2.09598,0 -2.09599,0 -2.09599,0 -2.09598,0 -2.09599,0 -2.09598,0 -2.09599,0 -2.09598,0 -2.09599,0 -2.09599,0 -2.09598,0 -2.09599,0 -2.09598,0 -2.09599,0 -2.09599,0 -2.09598,0 -2.09599,0 -2.09598,0 -2.09599,0 -2.09599,0 -2.09598,0 -2.09599,0 -2.09598,0 -2.09599,0 -2.09599,0 -2.09598,0 -2.09599,0 -2.09598,0 -2.09599,0 -2.09598,0 -2.09599,0 -2.09599,0 -2.09598,0 -2.09599,0 -2.09598,0 -2.09599,0 -2.09599,0 -2.09598,0 -2.09599,0 -2.09598,0 -2.09599,0 -2.09599,0 -2.09598,0 -2.09599,0 -2.09598,0 -2.09599,0 -2.09598,0 -2.09599,0 -2.09599,0 -2.09598,0 -2.09599,0 -2.09598,0 -2.09599,0 -2.09599,0 -2.09598,0 -2.09599,0 -2.09598,0 -2.09599,0 -2.09599,0 -2.09598,0 -2.09599,0 -2.09598,0 -2.09599,0 -2.09599,0 -2.09598,0 -2.09599,0 -2.09598,0 -2.09599,0 -2.09598,0 -2.09599,0 -2.09599,0 -2.09598,0 -2.09599,0 -2.09598,0 -2.09599,0 -2.09599,0 -2.09598,0 -2.09599,0 -2.09598,0 -2.09599,0 -2.09599,0 -2.09598,0 -2.09599,0 -2.09598,0 -2.09599,0 -2.09598,0 -2.09599,0 -2.09599,0 -2.09598,0 -2.09599,0 -2.09598,0 -2.09599,0 -2.09599,0 -2.09598,0 -2.09599,0 -2.09598,0 -2.09599,0 -2.09599,0 -2.09598,0 -2.09599,0 -2.09598,0 -2.09599,0 -2.09599,0 -2.09598,0 -2.09599,0 -2.09598,0 -2.09599,0 -2.09598,0 -2.09599,0 -2.09599,0 -2.09598,0 -2.09599,0 -2.09598,0 -2.09599,0 -2.09599,0 -2.09598,0 -2.09599,0 -2.09598,0 -2.09599,0 -2.09599,0 -2.09598,0 -2.09599,0 -2.09598,0 -2.09599,0 -2.09598,0 -2.09599,0 -2.09599,0 -2.09598,0 -2.09599,0 -2.09598,0 -2.09599,0 -2.09599,0 -2.09598,0 -2.09599,0 -2.09598,0 -2.09599,0 -2.09599,0 -2.09598,0 -2.09599,0 -2.09598,0 -2.09599,0 -2.09599,0 -2.09598,0 -2.09599,0 -2.00865,0 -2.09599,0 -2.09598,0 -2.09599,0 -2.09598,0 -2.09599,0 -2.09599,0 -2.09598,0 -2.09599,0 -2.09598,0 -2.09599,0 -2.09599,0 -2.09598,0 -2.09599,0 -2.09598,0 -2.09599,0 -2.09598,0 -2.09599,0 -2.09599,0 -2.09598,0 -2.09599,0 -2.09598,0 -2.09599,0 -2.09599,0 -2.09598,0 -2.09599,0 -2.09598,0 -2.09599,0 -2.09599,0 -2.09598,0 -2.09599,0 -2.09598,0 -2.09599,0 -2.09598,0 -2.09599,0 -2.09599,0 -2.09598,0 -2.09599,0 -2.09598,0 -2.09599,0 -2.09599,0 -2.09598,0 -2.09599,0 -2.09598,0 -2.09599,0 -2.09599,0 -2.09598,0 -2.09599,0 -2.09598,0 -2.09599,0 -2.09599,0 -2.09598,0 -2.09599,0 -2.09598,0 -2.09599,0 -2.09598,0 -2.09599,0 -2.09599,0 -2.09598,0 -2.09599,0 -2.09598,0 -2.09599,0 -2.09599,0 -2.09598,0 -2.09599,0 -2.09598,0 -2.09599,0 -2.09599,0 -2.09598,0 -2.09599,0 -2.09598,0 -2.09599,0 -2.09598,0 -2.09599,0 -2.09599,0 -2.09598,0 -2.09599,0 -2.09598,0 -2.09599,0 -2.09599,0 -2.09598,0 -2.09599,0 -2.09598,0 -2.09599,0 -2.09599,0 -2.09598,0 -2.09599,0 -2.09598,0 -2.09599,0 -2.09599,0 -2.09598,0 -2.09599,0 -2.09598,0 -2.09599,0 -2.09598,0 -2.09599,0 -2.09599,0 -2.09598,0 -2.09599,0 -2.09598,0 -2.09599,0 -2.09599,0 -2.09598,0 -2.09599,0 -2.09598,0 -2.09599,0 -2.09599,0 -2.09598,0 -2.09599,0 -2.09598,0 -2.09599,0 -2.09598,0 -2.09599,0 -2.09599,0 -2.09598,0 -2.09599,0 -2.09598,0 -2.09599,0 -2.09599,0 -2.09598,0 -2.09599,0 -2.09598,0 -2.09599,0 -2.09599,0 -2.09598,0 -2.09599,0 -2.09598,0 -2.09599,0 -2.09599,0 -2.09598,0 -2.09599,0 -2.09598,0 -2.09599,0 -2.09598,0 -2.09599,0 -2.09599,0 -2.09598,0 -2.09599,0 -2.09598,0 -2.09599,0 -2.09599,0 -2.09598,0 -2.09599,0 -2.09598,0 -2.09599,0 -2.09599,0 -2.09598,0 -2.09599,0 -2.09598,0 -2.09599,0 -2.09599,0 -2.09598,0 -2.09599,0 -2.09598,0 -2.18332,0 -2.09599,0 -2.09598,0 -2.09599,0 -2.09599,0 -2.09598,0 -2.09599,0 -2.09598,0 -2.09599,0 -2.09598,0 -2.09599,0 -2.09599,0 -2.09598,0 -2.09599,0 -2.09598,0 -2.09599,0 -2.09599,0 -2.09598,0 -2.095987,0 -2.095986,0 -2.095986,0 -2.095986,0 -2.095986,0 -2.095986,0 -2.095986,0 -2.095986,0 -2.095986,0 -2.095986,0 -2.095985,0 -2.095986,0 -2.095986,0 -2.095986,0 L 70,460 Z"
     class="area" />
</svg>
